<?xml version="1.0" encoding="UTF-8"?>
<svg width="70px" height="55px" viewBox="0 0 70 55" version="1.1" xmlns="http://www.w3.org/2000/svg" xmlns:xlink="http://www.w3.org/1999/xlink">
    <!-- Generator: Sketch 61.1 (89650) - https://sketch.com -->
    <title>books-stack-of-three</title>
    <desc>Created with Sketch.</desc>
    <g id="Page-1" stroke="none" stroke-width="1" fill="none" fill-rule="evenodd">
        <g id="Desktop-HD" transform="translate(-235.000000, -3019.000000)" fill-rule="nonzero">
            <g id="books-stack-of-three" transform="translate(235.000000, 3019.000000)">
                <path d="M64.828125,16.6197917 C64.5458333,14.4977083 64.5060417,10.8427083 66.4770833,9.61541667 C66.5122917,9.59291667 66.5385417,9.56041667 66.569375,9.5325 C68.1808333,9.01708333 69.2960417,8.29375 68.420625,7.32041667 L44.649375,0.157916667 L6.15833333,5.509375 C6.15833333,5.509375 1.750625,6.139375 2.144375,12.9872917 C2.358125,16.714375 3.52708333,18.5447917 4.549375,19.445625 L1.39083333,20.3975 C0.514166667,21.3708333 1.62916667,22.094375 3.24083333,22.6089583 C3.27145833,22.6377083 3.29729167,22.67 3.333125,22.6925 C5.30291667,23.9208333 5.265,27.5754167 4.98166667,29.6979167 C-2.09479167,31.7072917 0.445416667,32.3620833 0.445416667,32.3620833 L1.99770833,32.7377083 C0.905833333,33.724375 -0.178541667,35.5954167 0.0245833333,39.1439583 C0.418541667,45.990625 4.03895833,46.463125 4.03895833,46.463125 L29.2272917,54.6502083 L67.2460417,45.4414583 C67.2460417,45.4414583 69.7870833,44.785625 62.70875,42.7760417 C62.4241667,40.656875 62.3845833,37.0027083 64.3589583,35.77125 C64.3952083,35.749375 64.4216667,35.71625 64.4510417,35.68875 C66.0627083,35.1733333 67.176875,34.450625 66.30125,33.4772917 L64.64875,32.9783333 C65.7508333,32.31375 67.40625,30.576875 67.665625,26.0652083 C67.8445833,22.961875 67.035,21.144375 66.0979167,20.074375 L69.3641667,19.2839583 C69.364375,19.2852083 71.9054167,18.629375 64.828125,16.6197917 Z" id="Path" fill="#000000"></path>
                <path d="M33.0277083,16.5320833 L39.4210417,15.218125 L61.026875,10.778125 L64.2458333,10.1160417 C63.2172917,11.9985417 63.2604167,14.5747917 63.430625,16.230625 C63.4679167,16.6052083 63.5108333,16.9472917 63.5525,17.2072917 L60.0291667,18.0833333 L32.7589583,24.8672917 L33.0277083,16.5320833 Z" id="Path" fill="#E3D003"></path>
                <path d="M5.56458333,23.1952083 L8.783125,23.8572917 L29.5325,28.1227083 L31.3452083,28.4939583 L31.3452083,28.4939583 L31.3452083,28.4939583 L36.78125,29.61125 L37.049375,37.9466667 L9.02145833,30.9735417 L6.25833333,30.286875 C6.29895833,30.0264583 6.341875,29.6847917 6.38083333,29.3091667 C6.55,27.6545833 6.59395833,25.0777083 5.56458333,23.1952083 Z" id="Path" fill="#FFFFFF"></path>
                <path d="M4.31416667,12.6577083 C4.27520833,10.83625 4.59979167,9.51895833 5.25583333,8.849375 C5.67333333,8.421875 6.16604167,8.33291667 6.50395833,8.33291667 C6.6825,8.33291667 6.81104167,8.35770833 6.81979167,8.35770833 L23.4045833,13.7645833 L31.6789583,16.4622917 L31.4075,24.8558333 L8.19458333,18.3479167 L6.96958333,18.0047917 C6.92458333,17.9920833 6.86354167,17.9833333 6.81645833,17.98125 C6.72083333,17.974375 4.42583333,17.763125 4.31416667,12.6577083 Z" id="Path" fill="#E3D003"></path>
                <path d="M29.2872917,51.01375 L4.85,44.1625 C4.80479167,44.149375 4.744375,44.140625 4.69729167,44.1383333 C4.6,44.131875 2.30395833,43.9208333 2.19291667,38.8166667 C2.15333333,36.9929167 2.47958333,35.676875 3.134375,35.0066667 C3.55291667,34.5791667 4.04583333,34.4902083 4.383125,34.4902083 C4.56208333,34.4902083 4.69020833,34.5141667 4.69958333,34.5141667 C4.69958333,34.5141667 4.700625,34.5141667 4.69958333,34.5141667 L29.5570833,42.62 L29.2872917,51.01375 Z" id="Path" fill="#FFFFFF"></path>
                <path d="M61.3091667,42.3872917 C61.3477083,42.763125 61.390625,43.1045833 61.4322917,43.365 L30.638125,51.025625 L30.9072917,42.6902083 L37.4908333,41.3366667 L38.463125,41.571875 L42.1072917,40.3875 L58.9054167,36.935625 L62.125625,36.273125 C61.0960417,38.1554167 61.13875,40.7327083 61.3091667,42.3872917 Z" id="Path" fill="#FFFFFF"></path>
                <path d="M63.0054167,31.0591667 C62.949375,31.0604167 62.8933333,31.0679167 62.840625,31.0845833 L60.518125,31.7347917 L38.4039583,37.935625 L38.1335417,29.5420833 L45.3889583,27.175625 L62.9570833,21.44625 C62.959375,21.4452083 63.88125,21.2404167 64.5579167,21.9285417 C65.2129167,22.598125 65.5379167,23.9154167 65.4995833,25.736875 C65.385,30.840625 63.0889583,31.0527083 63.0054167,31.0591667 Z" id="Path" fill="#FFFFFF"></path>
            </g>
        </g>
    </g>
</svg>