<?xml version="1.0" encoding="UTF-8"?>
<svg width="60px" height="60px" viewBox="0 0 60 60" version="1.1" xmlns="http://www.w3.org/2000/svg" xmlns:xlink="http://www.w3.org/1999/xlink">
    <!-- Generator: Sketch 61.1 (89650) - https://sketch.com -->
    <title>book</title>
    <desc>Created with Sketch.</desc>
    <g id="Page-1" stroke="none" stroke-width="1" fill="none" fill-rule="evenodd">
        <g id="Desktop-HD" transform="translate(-540.000000, -3338.000000)">
            <g id="book" transform="translate(540.000000, 3338.000000)">
                <polygon id="Path-4" fill="#E570FC" points="38.0199368 34.8787354 48.4099536 34.8787354 48.4099536 49.7177419 43.3218539 46.7301182 38.0199368 50.1671365"></polygon>
                <path d="M36.6532258,7.62096774 C36.6513357,6.95375504 36.1107611,6.41318044 35.4435484,6.41129032 L14.6370968,6.41129032 C13.9698841,6.41318044 13.4293095,6.95375504 13.4274194,7.62096774 L13.4274194,18.5080645 C13.4293095,19.1752772 13.9698841,19.7158518 14.6370968,19.7177419 L35.4435484,19.7177419 C36.1107611,19.7158518 36.6513357,19.1752772 36.6532258,18.5080645 L36.6532258,7.62096774 Z M15.8467742,8.83064516 L34.233871,8.83064516 L34.233871,17.2983871 L15.8467742,17.2983871 L15.8467742,8.83064516 Z" id="Shape" fill="#000000" fill-rule="nonzero"></path>
                <path d="M43.3187373,26.6974862 C42.8707788,26.6974862 42.4596774,26.7215852 41.9758065,26.7461567 L41.9758065,1.23377649 C41.9833669,0.912928427 41.8623992,0.602003468 41.6398374,0.37046371 C41.4172756,0.138451331 41.1115487,0.00519783871 40.7902281,0 L6.06067282,0 C2.72366431,0.0132308468 0.0198462097,2.71137847 -6.87622002e-15,6.0483871 L-6.87622002e-15,45.9436429 C-6.87622002e-15,45.9677419 0.0240990726,45.991841 0.0240990726,46.0041267 L0.0240990726,46.1250945 C0.0311869355,49.4517074 2.73358742,52.1432396 6.06067282,52.1370968 L29.2378087,52.1370968 C32.2676727,57.0055759 37.5963962,59.9650328 43.3305507,59.9636157 C52.5,59.9636157 59.9636152,52.5122857 59.9636152,43.3305507 C59.9636152,34.149288 52.4877143,26.6974862 43.3187373,26.6974862 Z M39.5564516,27.1208733 C33.266129,28.5847719 28.2700668,33.75 26.9999055,40.1612903 L10.5241935,40.1612903 L10.5241935,2.41935484 L39.5564516,2.41935484 L39.5564516,27.1208733 Z M6.06067282,2.41935484 L8.10483871,2.41935484 L8.10483871,40.1612903 L6.06067282,40.1612903 C4.75459935,40.1542023 3.4801852,40.5605783 2.41935484,41.3227696 L2.41935484,6.0483871 C2.43494831,4.04580387 4.05808972,2.42833294 6.06067282,2.41935484 Z M6.06067282,49.7177419 C4.08974927,49.7177419 2.49212444,48.1201172 2.49212444,46.1491935 C2.49212444,44.1782699 4.08974927,42.5806452 6.06067282,42.5806452 L26.7097719,42.5806452 C26.6974862,42.8225806 26.6856728,43.0768019 26.6856728,43.3428364 C26.6804751,45.5320691 27.1166204,47.7005104 27.9676475,49.7177419 L6.06067282,49.7177419 Z M43.3305507,57.5565461 C38.2598286,57.553711 33.5732736,54.8536731 31.0282258,50.4676475 C30.9951486,50.3953502 30.9545111,50.3263609 30.9072581,50.2620968 C27.7871408,44.6616683 28.8026083,37.6658581 33.3870968,33.1839087 C37.9711126,28.702432 44.9881868,27.8447896 50.5167906,31.0905998 C56.0449219,34.3368825 58.7156627,40.8823715 57.0358178,47.06921 C55.3559728,53.2560484 49.7413684,57.5522933 43.3305507,57.5565461 L43.3305507,57.5565461 Z" id="Shape" fill="#000000" fill-rule="nonzero"></path>
                <path d="M48.4352949,33.75 L38.1894217,33.75 C37.5240991,33.75 37.0284148,34.3307396 37.0284148,34.9960622 L37.0284148,50.3707788 C37.0208543,50.8286606 37.2741305,51.25063 37.6814516,51.4594885 C38.0892452,51.6645665 38.578314,51.617786 38.9393272,51.3385207 L43.3305507,47.9878087 L47.7217742,51.3385207 C47.9296875,51.4987084 48.1853263,51.5837638 48.4475806,51.5804562 C48.624307,51.5823462 48.7986706,51.5407635 48.9555507,51.4594885 C49.3628717,51.25063 49.6161479,50.8286606 49.6090599,50.3707788 L49.6090599,34.9960622 C49.5967742,34.3307396 49.1006175,33.75 48.4352949,33.75 Z M47.1774194,47.9396106 L44.0199723,45.5202558 C43.5989479,45.1975176 43.0139554,45.1975176 42.5929309,45.5202558 L39.4354839,47.9396106 L39.4354839,36.1693548 L47.1774194,36.1693548 L47.1774194,47.9396106 Z" id="Shape" fill="#000000" fill-rule="nonzero"></path>
            </g>
        </g>
    </g>
</svg>