<?xml version="1.0" encoding="UTF-8"?>
<svg width="70px" height="69px" viewBox="0 0 70 69" version="1.1" xmlns="http://www.w3.org/2000/svg" xmlns:xlink="http://www.w3.org/1999/xlink">
    <!-- Generator: Sketch 61.1 (89650) - https://sketch.com -->
    <title>high-school</title>
    <desc>Created with Sketch.</desc>
    <g id="Page-1" stroke="none" stroke-width="1" fill="none" fill-rule="evenodd">
        <g id="Desktop-HD" transform="translate(-835.000000, -3019.000000)">
            <g id="high-school" transform="translate(835.000000, 3019.000000)">
                <path d="M67.9492188,35.1572266 L53.4355664,35.1572266 L53.4355664,24.4660938 C53.4355664,23.7204297 53.0308789,23.0335547 52.3787305,22.672207 L37.0507812,14.179375 L37.0507812,10.7810938 L43.7599805,10.7810938 C44.8925586,10.7810938 45.8107617,9.86289062 45.8107617,8.7303125 L45.8107617,2.07320312 C45.8107617,0.940625 44.8925586,0.022421875 43.7599805,0.022421875 L35,0.022421875 C33.8674219,0.022421875 32.9492188,0.940625 32.9492188,2.07320312 L32.9492188,8.7303125 L32.9492188,14.1792383 L17.6214062,22.672207 C16.9691211,23.0335547 16.5645703,23.7204297 16.5645703,24.4660938 L16.5645703,35.1572266 L2.05078125,35.1572266 C0.918203125,35.1572266 0,36.0754297 0,37.2080078 L0,66.8330469 C0,67.965625 0.918203125,68.8838281 2.05078125,68.8838281 L67.9492188,68.8838281 C69.0817969,68.8838281 70,67.965625 70,66.8330469 L70,37.2080078 C70,36.0754297 69.0817969,35.1572266 67.9492188,35.1572266 Z M41.7091992,6.67953125 L37.0507812,6.67953125 L37.0507812,4.12398437 L41.7091992,4.12398437 L41.7091992,6.67953125 Z M4.1015625,39.2587891 L16.5644336,39.2587891 L16.5644336,64.7822656 L4.1015625,64.7822656 L4.1015625,39.2587891 Z M20.6658594,37.2080078 L20.6658594,25.6744141 L35,17.7320117 L49.3340039,25.6744141 L49.3340039,37.2080078 L49.3340039,64.7822656 L45.374082,64.7822656 L45.374082,53.5206055 C45.374082,47.8400781 40.7527148,43.2187109 35.0721875,43.2187109 L34.9276758,43.2187109 C29.2471484,43.2187109 24.6257812,47.8400781 24.6257812,53.5206055 L24.6257812,64.7822656 L20.6658594,64.7822656 L20.6658594,37.2080078 L20.6658594,37.2080078 Z M28.7274805,53.5206055 C28.7274805,50.7934766 30.4978516,48.4737695 32.9492187,47.6459375 L32.9492187,64.7824023 L28.7274805,64.7824023 L28.7274805,53.5206055 Z M37.0507812,64.7822656 L37.0507812,47.6458008 C39.5020117,48.4736328 41.2725195,50.7934766 41.2725195,53.5204687 L41.2725195,64.7822656 L37.0507812,64.7822656 L37.0507812,64.7822656 Z M65.8984375,64.7822656 L53.4355664,64.7822656 L53.4355664,39.2587891 L65.8984375,39.2587891 L65.8984375,64.7822656 Z" id="Shape" fill="#000000" fill-rule="nonzero"></path>
                <path d="M11.8974023,49.8982422 L8.76859375,49.8982422 C7.63601562,49.8982422 6.7178125,50.8164453 6.7178125,51.9490234 C6.7178125,53.0816016 7.63601562,53.9998047 8.76859375,53.9998047 L11.8975391,53.9998047 C13.0301172,53.9998047 13.9483203,53.0816016 13.9483203,51.9490234 C13.9483203,50.8164453 13.0301172,49.8982422 11.8974023,49.8982422 L11.8974023,49.8982422 Z" id="Path" fill="#000000" fill-rule="nonzero"></path>
                <path d="M11.8974023,43.1804297 L8.76859375,43.1804297 C7.63601562,43.1804297 6.7178125,44.0986328 6.7178125,45.2312109 C6.7178125,46.3637891 7.63601562,47.2819922 8.76859375,47.2819922 L11.8975391,47.2819922 C13.0301172,47.2819922 13.9483203,46.3637891 13.9483203,45.2312109 C13.9483203,44.0986328 13.0301172,43.1804297 11.8974023,43.1804297 L11.8974023,43.1804297 Z" id="Path" fill="#000000" fill-rule="nonzero"></path>
                <path d="M58.1025977,53.9998047 L61.231543,53.9998047 C62.3641211,53.9998047 63.2823242,53.0816016 63.2823242,51.9490234 C63.2823242,50.8164453 62.3641211,49.8982422 61.231543,49.8982422 L58.1025977,49.8982422 C56.9700195,49.8982422 56.0518164,50.8164453 56.0518164,51.9490234 C56.0518164,53.0816016 56.9698828,53.9998047 58.1025977,53.9998047 Z" id="Path" fill="#000000" fill-rule="nonzero"></path>
                <path d="M58.1025977,47.2819922 L61.231543,47.2819922 C62.3641211,47.2819922 63.2823242,46.3637891 63.2823242,45.2312109 C63.2823242,44.0986328 62.3641211,43.1804297 61.231543,43.1804297 L58.1025977,43.1804297 C56.9700195,43.1804297 56.0518164,44.0986328 56.0518164,45.2312109 C56.0518164,46.3637891 56.9698828,47.2819922 58.1025977,47.2819922 Z" id="Path" fill="#000000" fill-rule="nonzero"></path>
                <path d="M35,39.2206445 C39.1622656,39.2206445 42.5485156,35.8343945 42.5485156,31.6721289 C42.5485156,27.5098633 39.1622656,24.1236133 35,24.1236133 C30.8377344,24.1236133 27.4514844,27.5098633 27.4514844,31.6721289 C27.4514844,35.8343945 30.8377344,39.2206445 35,39.2206445 Z M35,28.2250391 C36.9006641,28.2250391 38.4469531,29.7713281 38.4469531,31.6719922 C38.4469531,33.5726562 36.9006641,35.1189453 35,35.1189453 C33.0993359,35.1189453 31.5530469,33.5726562 31.5530469,31.6719922 C31.5530469,29.7713281 33.0993359,28.2250391 35,28.2250391 Z" id="Shape" fill="#000000" fill-rule="nonzero"></path>
                <path d="M35,28.2250391 C36.9006641,28.2250391 38.4469531,29.7713281 38.4469531,31.6719922 C38.4469531,33.5726563 36.9006641,35.1189453 35,35.1189453 C33.0993359,35.1189453 31.5530469,33.5726563 31.5530469,31.6719922 C31.5530469,29.7713281 33.0993359,28.2250391 35,28.2250391 Z" id="Path" fill="#9B59B6"></path>
            </g>
        </g>
    </g>
</svg>