<?xml version="1.0" encoding="UTF-8"?>
<svg width="60px" height="61px" viewBox="0 0 60 61" version="1.1" xmlns="http://www.w3.org/2000/svg" xmlns:xlink="http://www.w3.org/1999/xlink">
    <!-- Generator: Sketch 61.1 (89650) - https://sketch.com -->
    <title>microscope</title>
    <desc>Created with Sketch.</desc>
    <g id="Page-1" stroke="none" stroke-width="1" fill="none" fill-rule="evenodd">
        <g id="Desktop-HD" transform="translate(-1140.000000, -3029.000000)">
            <g id="microscope" transform="translate(1140.000000, 3029.000000)">
                <polygon id="Path-3" fill="#880202" points="41.717505 8.09756638 27.9308993 21.5677136 35.8559991 29.3794769 49.6655598 15.9537976"></polygon>
                <path d="M13.0140845,48.696338 C12.7098592,48.4085312 12.4027364,48.1187928 12.0956137,47.8261569 C16.6705835,43.3381087 21.3295775,37.8243863 21.3295775,30.3452716 C21.3295775,22.8661569 16.6705835,17.3524346 12.0956137,12.8634205 C12.4027364,12.5707847 12.7098592,12.2810463 13.0140845,11.9932394 C16.9583903,8.26720322 20.3637827,5.04917505 20.3637827,1.37142857 L20.3637827,0.405633803 L18.4321932,0.405633803 L18.4321932,1.37142857 C18.4321932,2.00788732 18.268008,2.65110664 17.9840644,3.30301811 L3.42760563,3.30301811 C3.14366197,2.65110664 2.97947686,2.00788732 2.97947686,1.37142857 L2.97947686,0.405633803 L1.04788732,0.405633803 L1.04788732,1.37142857 C1.04788732,5.04917505 4.45327968,8.26720322 8.39758551,11.9942052 C8.70181087,12.2820121 9.0089336,12.5717505 9.31605634,12.8643863 C4.74108652,17.3524346 0.0820925553,22.8661569 0.0820925553,30.3452716 C0.0820925553,37.8243863 4.74108652,43.3381087 9.31605634,47.8271227 C9.0089336,48.1197586 8.70181087,48.409497 8.39758551,48.6973038 C4.45327968,52.42334 1.04788732,55.6413682 1.04788732,59.3191147 L1.04788732,60.2849095 L2.97947686,60.2849095 L2.97947686,59.3191147 C2.97947686,58.6826559 3.14366197,58.0394366 3.42760563,57.3875252 L17.9850302,57.3875252 C18.268008,58.0394366 18.4321932,58.6826559 18.4321932,59.3191147 L18.4321932,60.2849095 L20.3637827,60.2849095 L20.3637827,59.3191147 C20.3637827,55.6413682 16.9583903,52.42334 13.0140845,48.696338 Z M4.58269618,5.23460765 L16.8289738,5.23460765 C16.357666,5.86527163 15.7984708,6.50849095 15.1793964,7.16619718 L6.23227364,7.16619718 C5.6131992,6.50849095 5.05303823,5.86527163 4.58269618,5.23460765 Z M8.15613682,9.09778672 L13.2545674,9.09778672 C12.7475252,9.58647887 12.2240644,10.0819316 11.6870825,10.5899396 C11.364507,10.8951308 11.0361368,11.2051509 10.705835,11.5190342 C10.3745674,11.2051509 10.047163,10.8951308 9.72458753,10.5899396 C9.18760563,10.0819316 8.66317907,9.58647887 8.15613682,9.09778672 Z M10.705835,14.2039437 C11.8744467,15.3474447 13.0295372,16.5344064 14.0967404,17.7899396 L7.31492958,17.7899396 C8.3821328,16.5344064 9.53722334,15.3474447 10.705835,14.2039437 Z M3.51066398,23.5847082 L12.6374245,23.5847082 L12.6374245,21.6531187 L4.52861167,21.6531187 C4.94293763,20.9529175 5.39299799,20.2739638 5.87686117,19.6133602 L5.87686117,19.7215292 L15.5348089,19.7215292 L15.5348089,19.6133602 C16.018672,20.272998 16.4687324,20.9529175 16.8830584,21.6531187 L14.5690141,21.6531187 L14.5690141,23.5847082 L17.9019718,23.5847082 C18.1849497,24.2095775 18.423501,24.85666 18.6330785,25.5162978 L2.77955734,25.5162978 C2.98913481,24.85666 3.22672032,24.2095775 3.51066398,23.5847082 Z M2.28120724,27.4478873 L19.1314286,27.4478873 C19.2473239,28.0737223 19.3139638,28.7208048 19.3545272,29.3794769 L2.05810865,29.3794769 C2.09770624,28.7208048 2.16434608,28.0737223 2.28120724,27.4478873 Z M2.77859155,35.1742455 L5.87686117,35.1742455 L5.87686117,33.2426559 L2.28024145,33.2426559 C2.16434608,32.6168209 2.09770624,31.9697384 2.05714286,31.3110664 L19.3535614,31.3110664 C19.3139638,31.9697384 19.2473239,32.6168209 19.1304628,33.2426559 L7.8084507,33.2426559 L7.8084507,35.1742455 L18.6321127,35.1742455 C18.4225352,35.8338833 18.1849497,36.4809658 17.901006,37.105835 L3.50969819,37.105835 C3.22672032,36.4809658 2.98816901,35.8338833 2.77859155,35.1742455 Z M5.87686117,41.0771831 C5.39299799,40.4165795 4.94293763,39.7376258 4.52861167,39.0374245 L16.8830584,39.0374245 C16.4696982,39.7376258 16.018672,40.4165795 15.5348089,41.0771831 L15.5348089,40.9690141 L5.87686117,40.9690141 L5.87686117,41.0771831 Z M7.31492958,42.9006036 L14.0967404,42.9006036 C13.0295372,44.1561368 11.8744467,45.3430986 10.705835,46.4865996 C9.53722334,45.3430986 8.3821328,44.1561368 7.31492958,42.9006036 Z M9.72458753,50.1006036 C10.047163,49.7954125 10.3755332,49.4853924 10.705835,49.1715091 C11.0371026,49.4863581 11.364507,49.7963783 11.6870825,50.1006036 C12.2240644,50.6086117 12.7484909,51.1040644 13.2545674,51.5927565 L8.15613682,51.5927565 C8.66317907,51.1040644 9.18760563,50.6086117 9.72458753,50.1006036 Z M4.58269618,55.4559356 C5.05400402,54.8252716 5.6131992,54.1820523 6.23227364,53.5243461 L15.1803622,53.5243461 C15.7994366,54.1820523 16.3586318,54.8252716 16.8299396,55.4559356 L4.58269618,55.4559356 Z" id="Shape" fill="#000000" fill-rule="nonzero"></path>
                <path d="M55.1323944,52.5585513 L53.5745674,52.5585513 C55.8519115,48.4355734 57.0639839,43.7765795 57.0639839,39.0374245 C57.0639839,31.2405634 53.7986318,23.8029779 48.0936821,18.5084909 L50.7158149,15.8863581 L48.7832596,13.9538028 L52.2475654,10.4914286 L53.2172233,11.4601207 L57.4609256,7.17875252 L50.3014889,0 L46.0577867,4.30647887 L47.0158551,5.26454728 L43.5486519,8.72016097 L41.6238229,6.79533199 L28.1026962,20.3164588 L26.1711066,18.3848692 L21.9080885,22.6478873 L34.8632596,35.6030584 L39.1262777,31.3400402 L37.1946881,29.4084507 L42.6127968,23.9903421 C45.3991147,26.5062374 47.4523944,29.7638632 48.5060765,33.3392354 C46.7753722,33.7197586 45.4744467,35.261167 45.4744467,37.105835 C45.4744467,39.204507 47.1587928,40.9091348 49.2449095,40.9593561 C49.1686117,41.7667606 49.0411268,42.5683702 48.8692153,43.3593561 C48.1139638,43.0676861 47.2969014,42.9006036 46.4402414,42.9006036 L31.9533199,42.9006036 C29.2906237,42.9006036 27.1243461,45.0668813 27.1243461,47.7295775 L27.1243461,48.6953722 L39.7569416,48.6953722 C39.7115493,49.0121529 39.6796781,49.3327968 39.6796781,49.661167 L39.6796781,52.5585513 L26.1585513,52.5585513 C23.4958551,52.5585513 21.3295775,54.724829 21.3295775,57.3875252 L21.3295775,60.2849095 L59.9613682,60.2849095 L59.9613682,57.3875252 C59.9613682,54.724829 57.7950905,52.5585513 55.1323944,52.5585513 Z M50.3092153,2.74285714 L54.7354527,7.18261569 L53.209497,8.72305835 L48.7793964,4.29585513 L50.3092153,2.74285714 Z M48.3824547,6.62921529 L50.8809658,9.12579477 L47.4176258,12.5872032 L44.9152515,10.084829 L48.3824547,6.62921529 Z M34.8632596,32.8708249 L24.6393561,22.6469215 L26.1711066,21.115171 L36.3950101,31.3390744 L34.8632596,32.8708249 Z M35.8290543,28.0418511 L29.46833,21.6811268 L41.6238229,9.5256338 L47.9845473,15.8863581 L35.8290543,28.0418511 Z M43.9803622,22.6227767 L46.7280483,19.8750905 C52.0717907,24.8074044 55.1323944,31.7534004 55.1323944,39.0374245 C55.1323944,42.4621328 54.4582696,45.8424145 53.1660362,48.9793159 C52.9777062,47.1076056 52.0196378,45.4628571 50.6182696,44.3570221 C50.9321529,43.082173 51.1330382,41.7754527 51.2170624,40.4600402 C52.3943662,39.797505 53.2008048,38.550664 53.2008048,37.105835 C53.2008048,35.3983099 52.0804829,33.9631388 50.5419718,33.454165 C49.4631791,29.312837 47.1626559,25.5220926 43.9803622,22.6227767 Z M47.4060362,37.105835 C47.4060362,36.0405634 48.2723541,35.1742455 49.3376258,35.1742455 C50.4028974,35.1742455 51.2692153,36.0405634 51.2692153,37.105835 C51.2692153,38.1711066 50.4028974,39.0374245 49.3376258,39.0374245 C48.2723541,39.0374245 47.4060362,38.1711066 47.4060362,37.105835 Z M29.2210865,46.7637827 C29.6199598,45.6395976 30.6939235,44.8321932 31.9533199,44.8321932 L41.717505,44.8321932 C41.1505835,45.3865594 40.6860362,46.0404024 40.3412475,46.7637827 L29.2210865,46.7637827 Z M58.0297787,58.3533199 L23.261167,58.3533199 L23.261167,57.3875252 C23.261167,55.7901006 24.5611268,54.4901408 26.1585513,54.4901408 L43.5428571,54.4901408 L43.5428571,52.5585513 L41.6112676,52.5585513 L41.6112676,49.661167 C41.6112676,46.9984708 43.7775453,44.8321932 46.4402414,44.8321932 C49.1029376,44.8321932 51.2692153,46.9984708 51.2692153,49.661167 L51.2692153,52.5585513 L45.4744467,52.5585513 L45.4744467,54.4901408 L55.1323944,54.4901408 C56.7298189,54.4901408 58.0297787,55.7901006 58.0297787,57.3875252 L58.0297787,58.3533199 Z" id="Shape" fill="#000000" fill-rule="nonzero"></path>
            </g>
        </g>
    </g>
</svg>