<?xml version="1.0" encoding="UTF-8"?>
<svg width="60px" height="54px" viewBox="0 0 60 54" version="1.1" xmlns="http://www.w3.org/2000/svg" xmlns:xlink="http://www.w3.org/1999/xlink">
    <!-- Generator: Sketch 61.1 (89650) - https://sketch.com -->
    <title>monitor</title>
    <desc>Created with Sketch.</desc>
    <g id="Page-1" stroke="none" stroke-width="1" fill="none" fill-rule="evenodd">
        <g id="Desktop-HD" transform="translate(-240.000000, -3338.000000)" fill-rule="nonzero">
            <g id="monitor" transform="translate(240.000000, 3338.000000)">
                <path d="M56.3778516,0.109804688 L3.62214844,0.109804688 C1.62492187,0.109804688 0,1.73472656 0,3.73195313 L0,40.1560547 C0,42.1532812 1.62492187,43.7782031 3.62214844,43.7782031 L21.6994922,43.7782031 L21.6994922,46.41375 C21.6994922,48.8298047 19.7337891,50.7955078 17.3177344,50.7955078 L13.3337109,50.7955078 C12.5698828,50.7955078 11.9505469,51.4147266 11.9505469,52.1786719 C11.9505469,52.9426172 12.5698828,53.5618359 13.3337109,53.5618359 L46.6660547,53.5618359 C47.4298828,53.5618359 48.0492187,52.9426172 48.0492187,52.1786719 C48.0492187,51.4147266 47.4298828,50.7955078 46.6660547,50.7955078 L42.6819141,50.7955078 C40.2658594,50.7955078 38.3001562,48.8298047 38.3001562,46.41375 L38.3001562,43.7783203 L56.3775,43.7783203 C58.3747266,43.7783203 59.9997656,42.1533984 59.9997656,40.1561719 L59.9997656,3.73195313 C59.9997656,1.73472656 58.3750781,0.109804688 56.3778516,0.109804688 Z M22.959375,50.7957422 C23.9022656,49.5844922 24.4660547,48.0643359 24.4660547,46.4139844 L24.4660547,43.7784375 L35.5340625,43.7784375 L35.5340625,46.4139844 C35.5340625,48.0643359 36.0978516,49.5846094 37.0407422,50.7957422 L22.959375,50.7957422 Z M57.2336719,40.1561719 C57.2336719,40.6280859 56.8497656,41.0121094 56.3777344,41.0121094 L3.62214844,41.0121094 C3.15023437,41.0121094 2.76621094,40.6282031 2.76621094,40.1561719 L2.76621094,32.8866797 L57.2336719,32.8866797 L57.2336719,40.1561719 Z M57.2337891,30.1202344 L2.76632813,30.1202344 L2.76632813,3.73195313 C2.76632813,3.26003906 3.15023438,2.87601562 3.62226563,2.87601562 L56.3777344,2.87601562 C56.8496484,2.87601562 57.2337891,3.25992188 57.2337891,3.73195313 L57.2337891,30.1202344 L57.2337891,30.1202344 Z" id="Shape" fill="#000000"></path>
                <circle id="Oval" fill="#000000" cx="30.0003516" cy="36.9498047" r="1.49273437"></circle>
                <path d="M32.3716406,9.63914062 C31.8314062,9.09902344 30.9558984,9.09902344 30.4154297,9.63914062 L20.6403516,19.4142187 C20.1002344,19.9543359 20.1002344,20.8301953 20.6403516,21.3704297 C20.9105859,21.6405469 21.264375,21.7755469 21.6185156,21.7755469 C21.9726563,21.7755469 22.3264453,21.6405469 22.5965625,21.3704297 L32.3716406,11.5953516 C32.9117578,11.0552344 32.9117578,10.179375 32.3716406,9.63914062 Z" id="Path" fill="#7EB8E0"></path>
                <path d="M38.1653906,15.3038672 C37.6253906,14.76375 36.7498828,14.76375 36.2092969,15.30375 L32.3151562,19.1976562 C31.7750391,19.7378906 31.7750391,20.61375 32.3151562,21.1538672 C32.5852734,21.4239844 32.9391797,21.5589844 33.2932031,21.5589844 C33.6471094,21.5589844 34.0011328,21.4239844 34.27125,21.1538672 L38.1653906,17.2599609 C38.7055078,16.7198437 38.7055078,15.8439844 38.1653906,15.3038672 Z" id="Path" fill="#7EB8E0"></path>
            </g>
        </g>
    </g>
</svg>