<?xml version="1.0" encoding="UTF-8"?>
<svg width="50px" height="56px" viewBox="0 0 50 56" version="1.1" xmlns="http://www.w3.org/2000/svg" xmlns:xlink="http://www.w3.org/1999/xlink">
    <!-- Generator: Sketch 61.1 (89650) - https://sketch.com -->
    <title>musical-note</title>
    <desc>Created with Sketch.</desc>
    <g id="Page-1" stroke="none" stroke-width="1" fill="none" fill-rule="evenodd">
        <g id="Desktop-HD" transform="translate(-845.000000, -3338.000000)">
            <g id="musical-note" transform="translate(845.000000, 3338.000000)">
                <polygon id="Path-5" fill="#8D5B05" points="17.0408221 11.9102088 48.2482182 2.06308115 48.2482182 11.9102088 17.0408221 22.2831585"></polygon>
                <path d="M49.9835267,12.1944316 L49.9835267,1.56798144 C49.9835267,1.06914153 49.7399072,0.59350348 49.3454756,0.303480278 C48.9394432,0.0134570766 48.4174014,-0.079350348 47.9417633,0.0714617169 L16.2828306,10.1294664 C15.6331787,10.3382831 15.1923434,10.9415313 15.1923434,11.6259861 L15.1923434,22.2640371 L15.1923434,22.2756381 L15.1923434,42.612065 C13.5334107,41.4635731 11.4104408,40.837123 9.18306265,40.837123 C6.82807425,40.837123 4.58909513,41.5447796 2.8837587,42.8208817 C1.05081206,44.2013921 0.0415313225,46.0691415 0.0415313225,48.0993039 C0.0415313225,50.1294664 1.05081206,51.9972158 2.8837587,53.3777262 C4.58909513,54.6538283 6.81647332,55.3614849 9.18306265,55.3614849 C11.549652,55.3614849 13.7770302,54.6538283 15.4823666,53.3777262 C17.3153132,51.9972158 18.324594,50.1294664 18.324594,48.0993039 L18.324594,23.412529 L46.8512761,14.3406032 L46.8512761,32.5076566 C45.1923434,31.3591647 43.0693735,30.7327146 40.8419954,30.7327146 C38.487007,30.7327146 36.2480278,31.4403712 34.5426914,32.7164733 C32.7097448,34.0969838 31.700464,35.9647332 31.700464,37.9948956 C31.700464,40.025058 32.7097448,41.8928074 34.5426914,43.2733179 C36.2480278,44.54942 38.475406,45.2570766 40.8419954,45.2570766 C43.2085847,45.2570766 45.4359629,44.54942 47.1412993,43.2733179 C48.9742459,41.8928074 49.9835267,40.025058 49.9835267,37.9948956 L49.9835267,12.2060325 C49.9835267,12.1944316 49.9835267,12.1944316 49.9835267,12.1944316 Z M9.18306265,52.2292343 C5.92320186,52.2292343 3.1737819,50.3382831 3.1737819,48.0993039 C3.1737819,45.8603248 5.92320186,43.9693735 9.18306265,43.9693735 C12.4429234,43.9693735 15.1923434,45.8603248 15.1923434,48.0993039 C15.1923434,50.349884 12.4429234,52.2292343 9.18306265,52.2292343 Z M18.324594,20.1178654 L18.324594,12.762877 L46.8512761,3.7025522 L46.8512761,11.0575406 L18.324594,20.1178654 Z M40.8535963,42.124826 C37.5937355,42.124826 34.8443155,40.2338747 34.8443155,37.9948956 C34.8443155,35.7559165 37.5937355,33.8649652 40.8535963,33.8649652 C44.1134571,33.8649652 46.862877,35.7559165 46.862877,37.9948956 C46.8512761,40.2338747 44.1018561,42.124826 40.8535963,42.124826 Z" id="Shape" fill="#000000" fill-rule="nonzero"></path>
            </g>
        </g>
    </g>
</svg>