<?xml version="1.0" encoding="UTF-8"?>
<svg width="50px" height="40px" viewBox="0 0 50 40" version="1.1" xmlns="http://www.w3.org/2000/svg" xmlns:xlink="http://www.w3.org/1999/xlink">
    <!-- Generator: Sketch 61.1 (89650) - https://sketch.com -->
    <title>speaker-filled-audio-tool</title>
    <desc>Created with Sketch.</desc>
    <g id="Page-1" stroke="none" stroke-width="1" fill="none" fill-rule="evenodd">
        <g id="Desktop-HD" transform="translate(-1145.000000, -3352.000000)" fill-rule="nonzero">
            <g id="speaker-filled-audio-tool" transform="translate(1145.000000, 3352.000000)">
                <path d="M24.7590426,35.3835106 C24.7590426,36.2553191 24.2553191,37.0473404 23.4670213,37.4170213 C23.162234,37.5611702 22.8356383,37.6308511 22.5111702,37.6308511 C21.9973404,37.6308511 21.4882979,37.4542553 21.0771277,37.1132979 L8.79095745,26.9324468 L2.24734043,26.9324468 C1.00638298,26.9335106 0,25.9265957 0,24.6856383 L0,15.7319149 C0,14.4904255 1.00638298,13.4840426 2.24734043,13.4840426 L8.79148936,13.4840426 L21.0776596,3.30319149 C21.7489362,2.74680851 22.6797872,2.62819149 23.4675532,3.00053191 C24.2553191,3.37021277 24.7595745,4.16276596 24.7595745,5.03404255 L24.7590426,35.3835106 L24.7590426,35.3835106 Z" id="Shape" fill="#000000"></path>
                <path d="M33.3957447,31.8718085 C33.3409574,31.8755319 33.2882979,31.8776596 33.2340426,31.8776596 C32.6404255,31.8776596 32.0680851,31.6430851 31.6452128,31.2196809 L31.3446809,30.9180851 C30.556383,30.131383 30.4638298,28.8851064 31.1276596,27.9904255 C32.8106383,25.7212766 33.6989362,23.031383 33.6989362,20.2095745 C33.6989362,17.1744681 32.6904255,14.3276596 30.7819149,11.9765957 C30.0553191,11.0829787 30.1223404,9.78510638 30.9367021,8.9712766 L31.2367021,8.67074468 C31.6856383,8.22180851 32.287234,7.97712766 32.9382979,8.01595745 C33.5723404,8.04787234 34.1643617,8.3462766 34.5664894,8.83776596 C37.2138298,12.0771277 38.612234,16.0101064 38.612234,20.2101064 C38.612234,24.1218085 37.3755319,27.8452128 35.0351064,30.9760638 C34.6441489,31.4978723 34.0462766,31.8255319 33.3957447,31.8718085 Z" id="Path" fill="#88D9E6"></path>
                <path d="M42.687234,38.8170213 C42.2808511,39.2973404 41.6930851,39.5856383 41.0638298,39.612234 C41.0329787,39.6132979 41.0015957,39.6143617 40.9696809,39.6143617 C40.3744681,39.6143617 39.8031915,39.3792553 39.3803191,38.956383 L39.0851064,38.6611702 C38.2601064,37.8367021 38.2042553,36.5180851 38.9542553,35.6255319 C42.5787234,31.3148936 44.5755319,25.8404255 44.5755319,20.2095745 C44.5755319,14.3526596 42.437766,8.7143617 38.5574468,4.33351064 C37.7707447,3.44414894 37.8106383,2.09787234 38.6478723,1.25744681 L38.9425532,0.962234043 C39.3797872,0.52287234 39.9478723,0.280851064 40.5994681,0.301595745 C41.2180851,0.319148936 41.8031915,0.592553191 42.2143617,1.05531915 C46.9047872,6.33617021 49.4882982,13.1393617 49.4882982,20.2095745 C49.4893617,27.012234 47.0739362,33.6207447 42.687234,38.8170213 Z" id="Path" fill="#88D9E6"></path>
            </g>
        </g>
    </g>
</svg>