<?xml version="1.0" encoding="UTF-8"?>
<svg width="60px" height="60px" viewBox="0 0 60 60" version="1.1" xmlns="http://www.w3.org/2000/svg" xmlns:xlink="http://www.w3.org/1999/xlink">
    <!-- Generator: Sketch 61.1 (89650) - https://sketch.com -->
    <title>tools</title>
    <desc>Created with Sketch.</desc>
    <g id="Page-1" stroke="none" stroke-width="1" fill="none" fill-rule="evenodd">
        <g id="Desktop-HD" transform="translate(-540.000000, -3019.000000)">
            <g id="tools" transform="translate(540.000000, 3019.000000)">
                <polygon id="Path-2" fill="#1112FA" points="30.287836 36.5875047 36.7591893 29.9415205 39.7350077 33.103081 33.1942001 39.6833797"></polygon>
                <path d="M40.6245432,18.1460161 C39.9789839,18.1460161 39.4549525,18.668677 39.4549525,19.3151498 C39.4549525,19.961166 39.9789839,20.4847405 40.6245432,20.4847405 C41.271473,20.4847405 41.7941338,19.961166 41.7941338,19.3151498 C41.7941338,18.668677 41.271473,18.1460161 40.6245432,18.1460161 Z" id="Path" fill="#000000" fill-rule="nonzero"></path>
                <path d="M19.3736294,39.396473 C18.7266995,39.396473 18.2040387,39.9205043 18.2040387,40.5660636 C18.2040387,41.2129935 18.7266995,41.7356543 19.3736294,41.7356543 C20.0191885,41.7356543 20.54322,41.2129935 20.54322,40.5660636 C20.54322,39.9205043 20.0191885,39.396473 19.3736294,39.396473 Z" id="Path" fill="#000000" fill-rule="nonzero"></path>
                <path d="M58.4863853,7.19526678 C58.0916484,7.10343567 57.6768092,7.22267906 57.3917215,7.51050807 L52.542946,12.3976608 L50.2183846,12.3976608 L47.6594481,9.74643637 L47.6594481,7.38943719 L52.4387792,2.53883404 C52.7215826,2.25191883 52.8367142,1.83936398 52.7430556,1.44691158 C52.6498538,1.05491591 52.3611111,0.738760936 51.9791667,0.609923275 C50.7785088,0.205135205 49.5221125,-0.000110960762 48.2442434,-0.000110960762 C44.4348502,-0.000110960762 40.9740497,1.77631579 38.7490863,4.87344667 C36.6666667,7.77275216 36.0247625,11.3258407 36.9444444,14.726334 L28.3292215,23.341557 L13.9761513,8.95559205 L13.9761513,6.13212725 C13.9761513,5.72139988 13.7605081,5.34036912 13.4082602,5.12929462 L5.13843205,0.166758012 C4.67790573,-0.109649123 4.0889986,-0.0370065497 3.70979532,0.342653567 L0.402046784,3.64994515 C0.0228435088,4.02960526 -0.0497989474,4.6185124 0.226151345,5.07903871 L5.18777415,13.3488669 C5.39884865,13.7011147 5.77942246,13.9163012 6.19014982,13.916758 L9.01270105,13.9176718 L23.3671418,28.3036367 L14.7848136,36.8859649 C11.3843202,35.9667398 7.82940421,36.6095578 4.92872807,38.693348 C1.83342468,40.9169408 0.0584795322,44.3768275 0.0584795322,48.1862208 C0.0584795322,49.463633 0.263614737,50.7204861 0.668402807,51.9206871 C0.79769731,52.3049159 1.11705041,52.5950292 1.51178725,52.6864035 C1.90698105,52.7782346 2.32136327,52.6589912 2.60690784,52.3711623 L7.45522667,47.4844664 L9.79258035,47.4844664 L12.4556835,50.1475695 L12.4556835,52.4849233 L7.5689876,57.333242 C7.2811586,57.6187865 7.1619152,58.0331689 7.25374632,58.4283626 C7.34512058,58.8230994 7.63523392,59.1424525 8.01946269,59.2717471 C9.21966374,59.6765351 10.4765168,59.8816703 11.7539291,59.8816703 C15.5633223,59.8816703 19.0227522,58.1062683 21.2468019,55.0109649 C23.330592,52.1102888 23.9734101,48.5558297 23.0541849,45.1553363 L29.9470029,38.2625182 L31.5259503,39.9776133 L30.8013523,40.7017544 C30.3444809,41.1586257 30.3444809,41.8992142 30.8013523,42.3560855 C31.2582236,42.8125 31.9983553,42.8125 32.4556835,42.3560855 L33.1117508,41.7000182 L47.9262609,57.7919408 C47.9372258,57.8038194 47.9486477,57.8152412 47.9600695,57.826663 C50.7012975,60.5678911 55.1425439,60.5688048 57.8851426,57.8262061 C60.6199744,55.0900036 60.6199744,50.6377924 57.8851426,47.9015899 C57.8732639,47.8897112 57.8609284,47.8782895 57.8485929,47.8668677 L41.7315425,33.0806835 L42.3802996,32.4319262 C42.837171,31.9755117 42.837171,31.2349233 42.3802996,30.7780519 C41.9234283,30.3211806 41.1832968,30.3211806 40.7259685,30.7780519 L40.0063963,31.4980812 L38.288103,29.9209613 L45.2142726,22.9947917 C46.1988304,23.2579496 47.2149123,23.391356 48.2442434,23.391356 C54.6934393,23.391356 59.939693,18.1446455 59.939693,11.6959064 C59.939693,10.4180373 59.7345578,9.16164105 59.3297697,7.96098316 C59.2004751,7.57675439 58.8811221,7.28664105 58.4863853,7.19526678 Z M10.3257492,11.9220578 C10.106451,11.7023027 9.80902784,11.5903691 9.49835532,11.5903691 L6.85307018,11.5894554 L2.70193708,4.65871708 L4.71811041,2.64254386 L11.6369701,6.79459064 L11.6369701,9.43987579 C11.6369701,9.7496345 11.7598684,10.0466009 11.9787098,10.2658992 L26.6753473,24.9958882 L25.0210161,26.6497625 L10.3257492,11.9220578 Z M40.0758407,34.7363853 L56.2477157,49.5723684 C58.0541849,51.3980263 58.0487025,54.3539839 56.2308115,56.1727888 C54.4088084,57.9947917 51.459247,58.0002742 49.6299343,56.1887792 L34.7669956,40.0443165 L40.0758407,34.7363853 Z M38.3506945,33.1533261 L33.1811952,38.3219116 L31.6022478,36.6068165 L36.6324013,31.5762061 L38.3506945,33.1533261 Z M48.2442434,21.0521747 C47.2213085,21.0521747 46.2152778,20.8881579 45.2549343,20.564693 C44.8341557,20.4235198 44.3690607,20.5322551 44.0547332,20.8461257 C38.1912463,26.7096126 25.5569262,39.3434759 20.9046053,43.9962537 C20.5902778,44.3105812 20.4810855,44.7756761 20.6231725,45.1969116 C21.5953947,48.0838816 21.1302996,51.1631944 19.3466739,53.6462902 C17.5680738,56.122076 14.8003473,57.542489 11.7539291,57.542489 C11.4117324,57.542489 11.0713633,57.5237573 10.7341923,57.4876644 L14.4490131,53.8016264 C14.6701389,53.5823282 14.7948648,53.2835344 14.7948648,52.9714912 L14.7948648,49.662829 C14.7948648,49.3526133 14.6715095,49.0551901 14.4522112,48.8358918 L11.1038012,45.4874818 C10.8845029,45.2681835 10.5870796,45.1448282 10.2768641,45.1448282 L6.96820175,45.1448282 C6.6561586,45.1448282 6.3573648,45.2695542 6.13760959,45.4906798 L2.45202854,49.2055007 C2.41547883,48.8683297 2.39720398,48.5279605 2.39720398,48.1857639 C2.39720398,45.1388889 3.81716012,42.3716192 6.29340281,40.5930189 C8.77604164,38.8093932 11.8558115,38.3438414 14.7432384,39.3165205 C15.1640168,39.4586075 15.6291118,39.3494152 15.9434393,39.0350877 C16.0078582,38.9711257 39.0771199,15.9014071 39.0935673,15.8849598 C39.4078947,15.5706323 39.5166302,15.1059942 39.375,14.6847588 C38.4023209,11.7977888 38.8665022,8.71938959 40.6487573,6.2381214 C42.4287281,3.76005123 45.1969116,2.33918129 48.2437865,2.33918129 C48.5964912,2.33918129 48.9469116,2.35882678 49.2941338,2.39720398 L45.6565241,6.08918129 C45.4408808,6.30802269 45.3202668,6.60270468 45.3202668,6.90972222 L45.3202668,10.2183846 C45.3202668,10.5217471 45.4376828,10.8127742 45.6483005,11.0307018 L48.8797515,14.3791118 C49.0999635,14.6075475 49.4037829,14.7363853 49.7213085,14.7363853 L53.0299708,14.7363853 C53.341557,14.7363853 53.6403509,14.6121163 53.860106,14.3905336 L57.5456871,10.6761696 C57.5822368,11.0133406 57.6005117,11.3537098 57.6005117,11.6959064 C57.6005117,16.8548977 53.4032346,21.0521747 48.2442434,21.0521747 L48.2442434,21.0521747 Z" id="Shape" fill="#000000" fill-rule="nonzero"></path>
                <path d="M36.4898574,21.7959613 L21.8539839,36.4318349 C21.3975695,36.8882492 21.3975695,37.6288377 21.8539839,38.085709 C22.3108552,38.5425804 23.0514437,38.5425804 23.5083151,38.085709 L38.1441885,23.4498356 C38.6010599,22.9934211 38.6010599,22.2528326 38.1441885,21.7959613 C37.6873172,21.3390899 36.9467288,21.3390899 36.4898574,21.7959613 L36.4898574,21.7959613 Z" id="Path" fill="#000000" fill-rule="nonzero"></path>
                <path d="M51.2696455,52.8654971 C51.7265168,53.3209978 52.4671053,53.3209978 52.9239766,52.8627558 C53.3799343,52.4054276 53.3785636,51.6648392 52.9212353,51.2088816 L42.3789291,40.7003837 C41.9216009,40.2444262 41.1805556,40.2457967 40.7250549,40.703125 C40.2686404,41.1609101 40.270011,41.9010416 40.7273392,42.3569993 L51.2696455,52.8654971 Z" id="Path" fill="#000000" fill-rule="nonzero"></path>
            </g>
        </g>
    </g>
</svg>